<svg xmlns="http://www.w3.org/2000/svg" width="58" height="56" viewBox="0 0 58 56">
  <g id="_3.meals_icon" data-name="3.meals_icon" transform="translate(-792 -1356)">
    <rect id="사각형_472" data-name="사각형 472" width="58" height="56" transform="translate(792 1356)" fill="none"/>
    <g id="_3.meals_icon-2" data-name="3.meals_icon" transform="translate(650.914 1218.329)">
      <ellipse id="타원_20" data-name="타원 20" cx="5.94" cy="7.463" rx="5.94" ry="7.463" transform="translate(171.533 145.299)" fill="#fff" stroke="#000" stroke-miterlimit="10" stroke-width="1"/>
      <rect id="사각형_366" data-name="사각형 366" width="3.122" height="23.837" rx="1.561" transform="translate(175.912 162.206)" fill="#fff" stroke="#000" stroke-miterlimit="10" stroke-width="1"/>
      <path id="사각형_367" data-name="사각형 367" d="M0,0H3.122a0,0,0,0,1,0,0V1.561A1.561,1.561,0,0,1,1.561,3.122h0A1.561,1.561,0,0,1,0,1.561V0A0,0,0,0,1,0,0Z" transform="translate(175.912 182.921)" fill="#f38b87" stroke="#000" stroke-miterlimit="10" stroke-width="1"/>
      <rect id="사각형_368" data-name="사각형 368" width="3.122" height="23.837" rx="1.561" transform="translate(161.048 162.206)" fill="#fff" stroke="#000" stroke-miterlimit="10" stroke-width="1"/>
      <path id="사각형_369" data-name="사각형 369" d="M0,0H3.122a0,0,0,0,1,0,0V1.561A1.561,1.561,0,0,1,1.561,3.122h0A1.561,1.561,0,0,1,0,1.561V0A0,0,0,0,1,0,0Z" transform="translate(161.048 182.921)" fill="#f38b87" stroke="#000" stroke-miterlimit="10" stroke-width="1"/>
      <path id="패스_223" data-name="패스 223" d="M167.953,152.015s.126-1.269,1.295-1.269,1.244,1.269,1.244,1.269v8.047s0,1.574,1.168,1.574,1.219-1.5,1.219-1.5v-8.047s.1-1.32,1.244-1.346,1.244,1.4,1.244,1.4v7.946s.05,1.549,1.193,1.549,1.219-1.549,1.219-1.549v-7.946s.05-1.4,1.193-1.4,1.269,1.371,1.269,1.371v11.018s.1,2.767-2.462,2.767h-7.336a2.871,2.871,0,0,1-2.488-2.767Z" transform="translate(-11.195 -5.446)" fill="#fff" stroke="#000" stroke-miterlimit="10" stroke-width="1"/>
    </g>
  </g>
</svg>
