<svg xmlns="http://www.w3.org/2000/svg" width="58" height="56" viewBox="0 0 58 56">
  <g id="_4.dutyfeee_icon" data-name="4.dutyfeee_icon" transform="translate(-1240 -1356)">
    <rect id="사각형_473" data-name="사각형 473" width="58" height="56" transform="translate(1240 1356)" fill="none"/>
    <g id="_4.dutyfeee_icon-2" data-name="4.dutyfeee_icon" transform="translate(960.63 1209.771)">
      <path id="패스_226" data-name="패스 226" d="M341.206,165.537v-7.26a8.622,8.622,0,0,0-2.942-6.269,7.211,7.211,0,0,0-5.033-1.947h-2.659" transform="translate(-19.66 -0.47)" fill="none" stroke="#000" stroke-miterlimit="10" stroke-width="1"/>
      <path id="패스_227" data-name="패스 227" d="M358.553,167.958v39.38c0,.108.169.2.378.2h10.275c2.7,0,4.879-1.134,4.879-2.532V168.244c0-.138-.266-.232-.514-.183l-5.246,1.052a.718.718,0,0,1-.263,0l-6.295-1.157" transform="translate(-41.314 -8.021)" fill="#fd908c" stroke="#000" stroke-miterlimit="10" stroke-width="1"/>
      <path id="사각형_371" data-name="사각형 371" d="M7.056,0H44.787a0,0,0,0,1,0,0V29.613a9.963,9.963,0,0,1-9.963,9.963H9.963A9.963,9.963,0,0,1,0,29.613V7.056A7.056,7.056,0,0,1,7.056,0Z" transform="translate(283.969 159.937)" fill="#fff" stroke="#000" stroke-miterlimit="10" stroke-width="1"/>
      <circle id="타원_21" data-name="타원 21" cx="2.089" cy="2.089" r="2.089" transform="translate(295.45 163.478)" fill="#fff" stroke="#000" stroke-miterlimit="10" stroke-width="1"/>
      <circle id="타원_22" data-name="타원 22" cx="2.089" cy="2.089" r="2.089" transform="translate(315.15 163.478)" fill="#fff" stroke="#000" stroke-miterlimit="10" stroke-width="1"/>
      <path id="패스_228" data-name="패스 228" d="M307.442,165.567V158a8.987,8.987,0,0,1,3.1-6.868,9.453,9.453,0,0,1,6.325-2.19,10.364,10.364,0,0,1,6.487,2.091,8.748,8.748,0,0,1,3.792,6.733v7.8" transform="translate(-9.902)" fill="none" stroke="#000" stroke-miterlimit="10" stroke-width="1"/>
      <g id="그룹_76" data-name="그룹 76" transform="translate(295.128 182.44)">
        <g id="그룹_75" data-name="그룹 75" transform="translate(0)">
          <g id="그룹_74" data-name="그룹 74">
            <path id="패스_229" data-name="패스 229" d="M309.037,206.956l-.339,1.35a1.121,1.121,0,0,0-1.177-.972h-.595l-.774,3.109h.013a1.826,1.826,0,0,0,1.413-.755l-.473,1.894a1.007,1.007,0,0,0-1.037-.755h-.013l-.211.845a1.192,1.192,0,0,0-.032.473,1.025,1.025,0,0,0,.147.409h-2.578a1.8,1.8,0,0,0,.556-.883l.89-3.573a1.58,1.58,0,0,1-.739-.243,0,0,0,0,1,0-.007,1.42,1.42,0,0,0,.195.013,1.228,1.228,0,0,0,.632-.162h0a1.919,1.919,0,0,1-.28.021,1.891,1.891,0,0,1-.372-.037,1.529,1.529,0,0,1-.525-.2.87.87,0,0,1-.107-.079c.018.006.031.008.049.013l.031.007h.005a1.729,1.729,0,0,0,.176.026c.035,0,.071,0,.106,0a1.153,1.153,0,0,0,.591-.15,1.821,1.821,0,0,1-.2.01,1.85,1.85,0,0,1-.5-.069,1.715,1.715,0,0,1-.223-.08l-.013-.007a1.331,1.331,0,0,1-.216-.125l0,0-.052-.04c-.02-.016-.039-.033-.058-.05s-.031-.03-.045-.046a.092.092,0,0,1-.015-.019l.05.005.068.007.133.013.04,0,.136.011.03,0,.219.014Z" transform="translate(-303.271 -206.88)" fill="#c02717"/>
            <path id="패스_230" data-name="패스 230" d="M315.08,212.225l.46-1.843L316.1,210h-2.97a2.644,2.644,0,0,0-2.418,1.938,1.459,1.459,0,0,0,1.452,1.932H315a1.007,1.007,0,0,1-.14-.409,1.22,1.22,0,0,1,.032-.48Zm-2.22,1.267a.477.477,0,0,1-.473-.634l.454-1.843a.865.865,0,0,1,.793-.633Z" transform="translate(-306.384 -208.196)" fill="#c02717"/>
            <path id="패스_231" data-name="패스 231" d="M320.919,211.72l1.171-4.709H319.85a1.024,1.024,0,0,1,.147.41,1.317,1.317,0,0,1-.032.473l-.953,3.826a1.781,1.781,0,0,1-.556.889h2.572a1.006,1.006,0,0,1-.14-.409A1.231,1.231,0,0,1,320.919,211.72Z" transform="translate(-309.677 -206.935)" fill="#c02717"/>
            <path id="패스_232" data-name="패스 232" d="M326.281,210.76a1.218,1.218,0,0,0-.332.576.811.811,0,0,0,.045.569.722.722,0,0,0,.665.377,1.3,1.3,0,0,0,1.19-.946.878.878,0,0,0,.006-.429.69.69,0,0,0-.147-.288.354.354,0,0,1-.039-.051,1.481,1.481,0,0,0-1.228-.569h-.576a2.651,2.651,0,0,0-2.418,1.938,1.462,1.462,0,0,0,1.459,1.932h2.124l.192-.774.14-.576a2.068,2.068,0,0,1-1.663.972h-.416a.249.249,0,0,1-.2-.1.262.262,0,0,1-.039-.224l.615-2.476a.436.436,0,0,1,.4-.313.248.248,0,0,1,.2.09.268.268,0,0,1,.038.224Z" transform="translate(-311.758 -208.196)" fill="#c02717"/>
            <path id="패스_233" data-name="패스 233" d="M334.065,210h-.576a2.644,2.644,0,0,0-2.418,1.932,1.466,1.466,0,0,0,1.452,1.938h.576a2.651,2.651,0,0,0,2.418-1.938A1.459,1.459,0,0,0,334.065,210Zm-.147.7-.615,2.469a.435.435,0,0,1-.4.32.24.24,0,0,1-.236-.32l.614-2.469a.435.435,0,0,1,.4-.32A.238.238,0,0,1,333.918,210.7Z" transform="translate(-314.974 -208.196)" fill="#c02717"/>
            <path id="패스_234" data-name="패스 234" d="M342.753,210.562a1.5,1.5,0,0,0-1.228-.563h-2.84a1.121,1.121,0,0,1,.109.883l-.518,2.1a1.843,1.843,0,0,1-.557.889h2.572a1,1,0,0,1-.14-.416,1.208,1.208,0,0,1,.032-.473l.646-2.6a.477.477,0,0,1,.474.633l-.122.486-.32,1.293a.816.816,0,0,0,.806,1.081h1.164a1.009,1.009,0,0,1-.147-.416,1.34,1.34,0,0,1,.032-.473l.262-1.056c.006-.006.006-.013.006-.025l.006-.026A1.587,1.587,0,0,0,342.753,210.562Z" transform="translate(-317.803 -208.196)" fill="#c02717"/>
          </g>
        </g>
      </g>
      <path id="패스_235" data-name="패스 235" d="M323.422,194.928c-.024-.039-.05-.077-.076-.115a2.921,2.921,0,0,0-1.447-1.157c-.072-.027-.146-.05-.221-.072l-.022-.007a4,4,0,0,0-.946-.144,5.3,5.3,0,0,0-.616.012c-.086.006-.171.012-.261.023-.191.023-.384.042-.578.06-.353.033-.708.058-1.062.077-.284.016-.567.028-.848.036-1.34.04-2.633,0-3.706-.054-.321-.018-.625-.037-.9-.057l-.125-.009c-.2-.015-.39-.031-.561-.045l-.166-.015c-.215-.019-.4-.037-.549-.053l-.278-.03c-.12-.014-.21-.022-.21-.022a.391.391,0,0,0,.064.079q.089.1.186.187c.075.071.155.14.238.206s.142.113.216.167l.012.008a5.476,5.476,0,0,0,.891.517l.057.028a6.577,6.577,0,0,0,.917.332,7.605,7.605,0,0,0,2.08.286,7.913,7.913,0,0,0,.81-.043,4.771,4.771,0,0,1-2.441.617c-.15,0-.3-.006-.441-.018-.248-.025-.492-.06-.728-.108l-.021,0-.125-.028c-.076-.019-.131-.03-.2-.053a3.611,3.611,0,0,0,.442.323,6.282,6.282,0,0,0,2.167.822,7.712,7.712,0,0,0,2.694.065,5.081,5.081,0,0,1-2.612.669,5.807,5.807,0,0,1-.806-.056.016.016,0,0,0-.011.029,6.71,6.71,0,0,0,3.679,1.034,7.38,7.38,0,0,0,1.631-.183l0,.01a6.053,6.053,0,0,1-2.286.717.018.018,0,0,0,0,.035,6.347,6.347,0,0,0,1.442.165,5.518,5.518,0,0,0,1.206-.065,2.09,2.09,0,0,0,.446-.154,1.345,1.345,0,0,0,.738-1.561,1.228,1.228,0,0,0-.087-.343l0-.008h0a1.844,1.844,0,0,0-.531-.684,1.228,1.228,0,0,0-.614-.291,2.733,2.733,0,0,0-.4-.063,4.36,4.36,0,0,0-.823.014s-.151-.978,1.69-1.085h0a2.727,2.727,0,0,1,1.048-.438h.007a2.457,2.457,0,0,1,2.188.717C323.522,195.1,323.475,195.014,323.422,194.928Z" transform="translate(-11.339 -18.735)" fill="#c02717"/>
    </g>
  </g>
</svg>
