<svg xmlns="http://www.w3.org/2000/svg" width="58" height="56" viewBox="0 0 58 56">
  <g id="_5.oneclick_icon" data-name="5.oneclick_icon" transform="translate(-1543 -1346)">
    <rect id="사각형_474" data-name="사각형 474" width="58" height="56" transform="translate(1543 1346)" fill="none"/>
    <path id="패스_224" data-name="패스 224" d="M467.934,150.129h0c0-.079.006-.158.006-.237a6.051,6.051,0,0,0-6.014-5.959,6.191,6.191,0,0,0-5.468,3.555h0a6.19,6.19,0,0,0-5.468-3.555,6.051,6.051,0,0,0-6.014,5.959c0,.08,0,.159.006.237h0s-.339,3.792,3.881,7.933a96.354,96.354,0,0,0,7.6,6.62,96.378,96.378,0,0,0,7.6-6.62C468.274,153.922,467.934,150.129,467.934,150.129Z" transform="translate(1120.115 1206.76)" fill="#fd908c" stroke="#000" stroke-miterlimit="10" stroke-width="1"/>
    <path id="패스_225" data-name="패스 225" d="M440.622,197l13.026-.77c3.414-.417,2.638-3.872,2.638-3.872a2.763,2.763,0,0,0-2.924-2.575l-11.4.226c-.278,0-.377.076-.523-.135a9.638,9.638,0,0,0-8.1-3.618c-3.772.314-6.8,3.079-7.083,6.457a6.7,6.7,0,0,0,2.988,6.049h0a1.933,1.933,0,0,0-.207.88l.038,4.926a2.269,2.269,0,0,0,2.4,2.114l25.432-.194a2.574,2.574,0,0,0,1.309-.363,4.7,4.7,0,0,0,3.583-2.345l6.294-11.708a4.014,4.014,0,0,0-2.2-5.608l-.413-.177a4.967,4.967,0,0,0-6.276,1.975l-2.925,4.1" transform="translate(1129.165 1186.5)" fill="#fff" stroke="#000" stroke-miterlimit="10" stroke-width="1"/>
    <rect id="사각형_370" data-name="사각형 370" width="9.34" height="23.647" rx="4.67" transform="translate(1546.27 1374.531) rotate(-15.605)" fill="#fd908c" stroke="#000" stroke-miterlimit="10" stroke-width="1"/>
  </g>
</svg>
